 <svg  version="1.0" xmlns="http://www.w3.org/2000/svg"  width="1350.000000pt" height="1350.000000pt" viewBox="0 0 1350.000000 1350.000000"  preserveAspectRatio="xMidYMid meet">  <g transform="translate(0.000000,1350.000000) scale(0.100000,-0.100000)" fill="#ffffff" stroke="none"> <path d="M6550 12839 c-309 -19 -591 -47 -750 -74 -52 -9 -133 -23 -180 -30 -47 -8 -114 -22 -150 -30 -36 -8 -94 -22 -130 -29 -36 -8 -101 -24 -145 -36 -44 -12 -91 -25 -105 -27 -14 -3 -29 -9 -35 -13 -5 -4 -26 -11 -45 -15 -19 -4 -100 -29 -180 -56 -203 -68 -211 -71 -245 -85 -16 -7 -50 -20 -75 -29 -25 -10 -58 -23 -75 -30 -16 -7 -41 -18 -55 -23 -26 -11 -119 -53 -230 -104 -129 -59 -307 -152 -411 -214 -31 -19 -60 -34 -63 -34 -4 0 -22 -11 -39 -24 -18 -13 -52 -35 -77 -48 -42 -22 -309 -196 -320 -208 -3 -3 -36 -28 -73 -55 -102 -75 -115 -85 -202 -154 -152 -120 -275 -224 -345 -292 -20 -19 -74 -70 -120 -115 -47 -44 -130 -129 -185 -189 -55 -60 -115 -125 -133 -144 -18 -20 -38 -43 -46 -51 -31 -36 -234 -289 -261 -325 -16 -22 -31 -42 -34 -45 -15 -13 -281 -408 -281 -417 0 -3 -13 -25 -30 -50 -16 -24 -30 -46 -30 -49 0 -3 -8 -18 -19 -32 -10 -15 -36 -61 -58 -102 -22 -41 -55 -102 -73 -135 -68 -124 -163 -326 -225 -478 -14 -34 -30 -71 -35 -82 -4 -11 -19 -47 -31 -80 -13 -33 -26 -64 -30 -70 -4 -5 -10 -27 -14 -48 -4 -20 -11 -40 -16 -43 -5 -3 -9 -15 -9 -27 0 -12 -7 -35 -15 -51 -8 -15 -15 -35 -15 -43 0 -8 -6 -29 -14 -46 -8 -18 -22 -59 -31 -92 -9 -33 -21 -73 -27 -90 -16 -50 -68 -255 -84 -330 -8 -38 -21 -101 -30 -140 -8 -38 -21 -110 -29 -160 -8 -49 -21 -133 -30 -185 -9 -52 -20 -149 -25 -215 -5 -66 -14 -158 -19 -205 -35 -306 -13 -976 44 -1330 9 -52 22 -135 29 -185 8 -49 28 -153 45 -230 28 -131 39 -173 76 -310 8 -30 21 -79 29 -107 24 -92 96 -306 159 -473 39 -105 59 -153 105 -255 16 -36 40 -87 52 -115 37 -85 185 -376 225 -444 26 -44 172 -285 185 -306 16 -26 148 -216 207 -300 20 -27 55 -75 79 -105 24 -30 47 -60 51 -65 71 -95 248 -299 363 -419 155 -162 304 -306 317 -306 9 0 77 93 118 162 5 10 51 76 100 148 50 72 95 139 100 148 6 9 22 33 38 53 15 20 27 39 27 42 0 3 21 36 47 74 93 136 987 1467 1063 1583 25 38 68 102 95 142 28 40 55 80 60 90 6 9 66 99 134 200 69 101 139 206 157 233 18 28 37 55 41 60 5 6 20 28 33 50 13 22 27 42 30 45 7 7 257 377 294 438 17 26 56 84 88 130 32 45 58 86 58 91 0 5 3 11 8 13 6 2 84 115 117 170 5 9 62 93 125 187 l115 171 1315 0 1315 -1 115 -170 c63 -94 120 -178 125 -187 6 -10 33 -50 60 -91 28 -40 79 -117 115 -171 101 -153 324 -484 333 -495 4 -5 31 -46 60 -90 28 -44 54 -82 57 -85 3 -3 87 -126 186 -275 99 -148 258 -386 354 -528 96 -142 180 -265 185 -274 6 -9 43 -66 84 -127 41 -61 102 -154 137 -206 35 -52 87 -129 116 -170 29 -41 55 -79 58 -85 7 -15 44 -69 50 -75 3 -3 17 -23 30 -45 13 -22 28 -44 32 -50 26 -33 98 -136 98 -140 0 -2 37 -59 83 -125 45 -67 87 -128 92 -137 6 -9 39 -59 74 -112 289 -431 365 -541 374 -541 6 0 72 62 146 138 212 214 272 281 427 472 37 47 73 90 79 96 5 7 18 22 27 35 9 13 54 76 100 139 103 142 227 330 294 445 16 27 34 59 41 70 6 11 19 34 27 50 9 17 36 66 60 110 65 117 136 262 207 422 10 24 28 62 39 86 11 24 20 47 20 51 0 4 9 28 21 54 11 26 24 56 29 67 9 22 56 156 90 255 12 36 25 72 30 80 4 9 11 35 15 58 4 23 11 44 16 48 5 3 9 14 9 24 0 11 7 41 15 67 39 126 85 311 110 448 7 39 20 108 29 155 72 383 102 856 85 1340 -8 234 -16 322 -48 590 -12 93 -15 114 -47 275 -9 44 -20 103 -24 130 -5 28 -16 77 -25 110 -8 33 -22 89 -29 125 -8 36 -22 90 -31 120 -9 30 -22 78 -30 105 -30 109 -83 273 -110 340 -7 17 -20 53 -30 80 -18 53 -22 64 -54 137 -12 26 -21 51 -21 57 0 5 -6 22 -14 38 -8 15 -19 39 -25 53 -60 146 -185 394 -287 575 -13 22 -29 51 -36 65 -8 14 -34 58 -59 98 -24 40 -49 81 -54 90 -24 41 -134 204 -185 273 -30 43 -62 87 -70 99 -32 47 -89 120 -141 183 -30 36 -61 74 -69 85 -145 190 -585 632 -800 802 -24 19 -60 49 -80 66 -31 27 -240 185 -296 224 -97 67 -315 211 -339 224 -16 9 -43 25 -60 36 -16 11 -43 26 -60 34 -16 8 -52 29 -80 45 -27 17 -59 35 -70 41 -11 5 -27 14 -35 19 -8 6 -28 16 -45 24 -16 8 -70 34 -120 59 -102 52 -229 111 -340 158 -27 12 -64 28 -82 36 -17 8 -37 14 -45 14 -8 0 -18 4 -24 8 -9 9 -133 55 -244 91 -36 12 -74 26 -85 31 -11 4 -47 16 -80 25 -33 9 -78 23 -100 31 -22 7 -58 18 -80 23 -22 5 -65 17 -95 26 -30 8 -86 22 -125 30 -38 8 -101 22 -140 30 -311 70 -568 101 -1105 135 -180 11 -183 11 -380 -1z m1403 -4578 c54 -28 107 -78 127 -118 7 -16 19 -42 27 -58 13 -26 15 -131 11 -730 -2 -385 -7 -706 -11 -712 -7 -10 -280 -13 -1311 -13 l-1303 0 -6 398 c-4 218 -7 537 -7 707 0 280 2 315 19 360 34 89 115 164 199 184 21 5 515 8 1122 8 l1085 -2 48 -24z"/> <path d="M6682 8081 c-10 -6 -14 -47 -15 -162 l-2 -154 -184 -5 -183 -5 0 -115 0 -115 173 -3 c149 -2 176 -5 187 -19 9 -13 12 -98 12 -345 l0 -329 113 3 112 3 3 329 c1 223 6 334 13 343 9 10 53 13 186 13 l174 0 -3 118 -3 117 -182 3 c-136 2 -183 6 -183 15 -1 6 -1 78 0 158 1 127 -1 147 -15 153 -24 9 -188 7 -203 -3z"/> <path d="M5898 6273 c-9 -10 -19 -29 -23 -43 -4 -14 -15 -44 -26 -67 -45 -101 -58 -130 -74 -168 -10 -22 -31 -69 -47 -105 -17 -36 -38 -83 -48 -105 -10 -22 -32 -70 -49 -106 -17 -37 -31 -69 -31 -72 0 -9 -110 -252 -136 -299 -8 -14 -14 -31 -14 -37 0 -6 -20 -53 -45 -104 -25 -52 -45 -97 -45 -100 0 -3 -14 -36 -31 -74 -16 -37 -34 -77 -39 -88 -5 -11 -25 -56 -45 -100 -20 -44 -43 -93 -50 -110 -7 -16 -27 -60 -44 -96 -17 -37 -31 -69 -31 -73 0 -4 -13 -34 -29 -69 -16 -34 -43 -92 -60 -128 -17 -36 -31 -68 -31 -72 0 -3 -14 -36 -31 -74 -17 -37 -36 -81 -44 -98 -7 -16 -27 -61 -45 -100 -18 -38 -36 -79 -41 -90 -4 -11 -20 -47 -35 -80 -14 -33 -35 -80 -46 -105 -26 -60 -40 -90 -82 -183 -20 -44 -36 -80 -36 -82 0 -5 -56 -130 -86 -190 -13 -28 -24 -54 -24 -59 0 -5 -16 -43 -36 -85 -47 -97 -77 -163 -104 -226 -26 -60 -40 -92 -73 -165 -14 -30 -35 -77 -47 -105 -12 -27 -25 -59 -30 -70 -5 -11 -21 -47 -36 -80 -52 -119 -75 -170 -84 -190 -4 -11 -22 -49 -38 -85 -17 -36 -40 -87 -52 -115 -12 -27 -27 -63 -35 -80 -7 -16 -20 -46 -28 -65 -8 -19 -29 -66 -46 -105 -18 -38 -36 -79 -41 -90 -4 -11 -25 -56 -45 -100 -20 -44 -43 -96 -52 -115 -9 -19 -20 -43 -25 -53 -13 -27 -2 -51 29 -64 16 -6 46 -21 68 -34 50 -27 51 -28 209 -106 141 -69 164 -80 241 -113 28 -12 61 -26 75 -32 63 -27 89 -38 140 -58 30 -11 64 -25 75 -30 11 -4 29 -11 40 -13 11 -3 45 -15 75 -27 60 -23 144 -51 230 -76 30 -9 73 -22 95 -29 22 -7 69 -20 105 -30 36 -9 83 -23 105 -31 23 -8 49 -14 60 -14 11 0 74 -13 140 -29 66 -16 154 -34 195 -41 41 -7 111 -18 155 -26 44 -8 125 -18 180 -24 55 -5 129 -14 165 -19 124 -19 658 -43 666 -30 2 4 4 1232 4 2729 0 2684 0 2723 -20 2767 -27 62 -66 101 -129 129 -53 24 -55 24 -401 24 -318 0 -348 -1 -362 -17z"/> </g> </svg> 