<svg xmlns="http://www.w3.org/2000/svg" viewBox="0 0 700 700"><path fill="#f4eb5e" stroke="#f4eb5e" d="M319.5 34.128c-47.601 4.537-100.118 22.587-138.169 47.489-2.844 1.861-5.619 3.383-6.167 3.383-.549 0-1.147.346-1.331.769-.183.423-3.483 2.999-7.333 5.726-3.85 2.726-10.513 7.791-14.806 11.255-4.293 3.465-8.3 5.993-8.904 5.62-.605-.373-.821-.23-.482.319.827 1.339-11.945 13.653-13.296 12.818-.584-.36-.938-.242-.787.263.151.506-3.39 4.927-7.87 9.825-58.461 63.916-86.604 135.047-86.61 218.905-.004 73.557 22.425 138.165 68.5 197.314 6.924 8.889 35.755 39.402 35.755 37.841 0-.41 1.059.287 2.353 1.55 7.959 7.764 30.207 24.404 43.147 32.271 4.4 2.675 9.04 5.922 10.311 7.215 1.27 1.294 2.694 2.115 3.164 1.824.47-.29 1.005-.183 1.19.238.449 1.025 16.997 9.266 18.585 9.255.688-.004 1.25.442 1.25.992s.621 1 1.379 1c.759 0 4.021 1.219 7.25 2.71 3.229 1.49 6.538 2.815 7.353 2.945.815.13 1.64.711 1.833 1.291.193.579 1.664 1.054 3.268 1.054 1.605 0 2.917.45 2.917 1s1.098 1 2.441 1c1.343 0 2.719.45 3.059 1 .34.55 1.69 1 3 1s2.66.45 3 1c.34.55 1.604 1.007 2.809 1.015 1.945.012 8.533 1.929 12.691 3.692.825.35 2.4.767 3.5.928 5.68.827 9.198 1.589 11 2.381 1.1.484 4.025 1.107 6.5 1.385 6.129.69 11.465 1.472 18 2.641 26.196 4.685 71.556 2.906 106.5-4.178 30.379-6.158 61.666-17.71 90-33.231 13.534-7.414 34.663-21.779 46.851-31.853 5.968-4.933 12.043-9.914 13.5-11.069 5.351-4.241 24.613-24.481 32.082-33.711 36.903-45.602 59.118-96.327 68.315-155.987 3.712-24.08 3.088-72.369-1.26-97.513-11.52-66.616-42.133-125.688-89.358-172.429-5.24-5.186-9.256-9.868-8.924-10.404.332-.537.178-.713-.341-.393-.519.321-3.851-1.913-7.405-4.964-65.282-56.066-152.041-83.419-238.46-75.182" fill-rule="evenodd"/><path fill="#146bb3" stroke="#146bb3" d="M320.489 34.491C136.931 53.148 8.758 219.931 38.059 402c8.489 52.747 31.028 103.335 65.049 146 8.124 10.188 32.438 36 33.91 36 .402 0 12.586-17.662 27.078-39.25 60.905-90.728 87.071-129.725 103.664-154.5L285.341 364h135.61l23.594 35.25A42888.827 42888.827 0 0 0 489.329 466c11.654 17.325 33.979 50.534 49.611 73.797l28.421 42.297 7.868-7.797c70.008-69.382 103.971-172.424 89.215-270.673C643.237 162.435 531.962 53.715 390 35.481c-16.8-2.158-52.957-2.673-69.511-.99m-27.505 237.363c-8.329 4.432-9.024 10.398-7.323 62.896l.656 20.25H421v-37.352c0-42.068.039-41.848-8.02-45.896-5.51-2.769-114.776-2.675-119.996.102M346 288.464v8.464l-9.75.286-9.75.286-.129 6.25-.128 6.25H346v36h13v-36h19v-13h-19v-17h-13v8.464m-46.511 99.786a4185.15 4185.15 0 0 0-10.5 23.75c-2.039 4.675-9.445 21.325-16.458 37-7.013 15.675-14.212 31.875-15.997 36-3.059 7.067-31.001 69.89-34.077 76.618-1.577 3.45-27.337 61.215-28.098 63.009-1.077 2.538 32.675 18.39 55.053 25.856 30.112 10.047 56.624 14.878 88.838 16.189l15.75.641V525.107c0-156.907.47-145.799-6.344-150.01-3.132-1.936-4.846-2.097-22.383-2.097h-18.99l-6.794 15.25" fill-rule="evenodd"/></svg>