<?xml version="1.0" standalone="no"?>
<!DOCTYPE svg PUBLIC "-//W3C//DTD SVG 20010904//EN"
 "http://www.w3.org/TR/2001/REC-SVG-20010904/DTD/svg10.dtd">
<svg version="1.0" xmlns="http://www.w3.org/2000/svg"
 width="1350.000000pt" height="1350.000000pt" viewBox="0 0 1350.000000 1350.000000"
 preserveAspectRatio="xMidYMid meet">
<metadata>
Created by potrace 1.10, written by Peter Selinger 2001-2011
</metadata>
<g transform="translate(0.000000,1350.000000) scale(0.100000,-0.100000)"
fill="#000000" stroke="none">
<path d="M6565 12850 c-60 -4 -189 -13 -285 -19 -96 -6 -193 -15 -215 -21 -22
-5 -64 -10 -94 -10 -29 0 -83 -6 -120 -14 -79 -17 -183 -35 -266 -45 -34 -5
-70 -13 -82 -19 -12 -7 -35 -12 -51 -12 -16 0 -52 -6 -78 -14 -69 -20 -132
-36 -184 -46 -25 -6 -54 -14 -65 -19 -11 -5 -31 -12 -45 -15 -14 -2 -56 -14
-95 -26 -38 -12 -83 -25 -100 -30 -16 -5 -75 -25 -130 -45 -55 -20 -115 -40
-134 -45 -18 -5 -38 -13 -44 -19 -6 -6 -19 -11 -28 -11 -10 0 -30 -6 -46 -14
-15 -7 -44 -20 -63 -28 -19 -8 -52 -22 -72 -31 -21 -9 -53 -23 -70 -31 -85
-37 -174 -79 -188 -87 -8 -5 -22 -12 -30 -15 -17 -6 -86 -40 -112 -54 -10 -6
-26 -14 -35 -20 -10 -5 -40 -21 -68 -34 -27 -14 -77 -41 -110 -61 -33 -19 -69
-39 -80 -45 -11 -6 -33 -19 -50 -30 -16 -11 -39 -24 -50 -30 -11 -6 -32 -18
-47 -28 -14 -9 -48 -30 -75 -46 -26 -16 -50 -32 -53 -35 -3 -4 -43 -32 -90
-63 -74 -49 -210 -148 -304 -220 -90 -70 -357 -297 -435 -372 -230 -219 -451
-459 -599 -651 -34 -44 -80 -102 -102 -130 -22 -27 -60 -79 -85 -115 -24 -36
-71 -103 -104 -150 -33 -47 -70 -104 -82 -127 -13 -24 -26 -43 -30 -43 -4 0
-11 -9 -14 -21 -4 -12 -18 -37 -32 -58 -14 -20 -29 -45 -34 -56 -5 -11 -18
-33 -29 -50 -11 -16 -24 -39 -30 -50 -5 -11 -14 -27 -19 -35 -5 -8 -12 -22
-16 -30 -3 -8 -21 -42 -40 -75 -18 -33 -44 -80 -56 -105 -12 -25 -25 -52 -30
-60 -5 -8 -12 -22 -15 -30 -3 -8 -19 -42 -34 -75 -72 -153 -118 -261 -167
-390 -9 -22 -21 -53 -28 -70 -16 -38 -34 -92 -45 -130 -11 -40 -31 -96 -41
-117 -5 -10 -13 -34 -18 -55 -5 -21 -14 -51 -19 -68 -6 -16 -18 -57 -27 -90
-9 -33 -23 -80 -31 -105 -8 -25 -14 -56 -14 -70 -1 -14 -7 -36 -15 -50 -8 -14
-14 -39 -15 -57 0 -17 -5 -44 -11 -60 -6 -15 -15 -53 -19 -83 -4 -30 -12 -75
-18 -100 -6 -25 -18 -90 -27 -145 -8 -55 -22 -139 -30 -186 -8 -47 -15 -110
-15 -141 0 -30 -7 -104 -15 -164 -12 -85 -15 -202 -15 -524 1 -228 5 -449 10
-490 6 -41 14 -129 20 -195 5 -67 14 -133 19 -149 6 -15 11 -42 11 -59 0 -45
28 -205 71 -402 5 -27 14 -68 18 -90 4 -22 12 -56 19 -75 6 -19 18 -64 27
-100 23 -92 44 -162 76 -260 15 -47 30 -100 34 -117 4 -18 11 -35 16 -38 5 -4
9 -14 9 -23 0 -9 7 -30 15 -46 8 -15 15 -34 15 -42 0 -14 20 -66 46 -117 8
-16 14 -35 14 -44 0 -8 6 -27 13 -41 14 -28 40 -84 61 -137 7 -16 27 -61 45
-100 18 -38 46 -99 63 -135 16 -36 34 -72 39 -80 4 -8 22 -42 38 -75 17 -33
44 -82 60 -110 17 -27 41 -70 53 -95 13 -25 35 -63 50 -86 14 -23 35 -56 45
-75 32 -59 194 -300 270 -401 40 -53 73 -102 73 -107 0 -6 6 -14 13 -18 7 -4
36 -39 66 -77 58 -74 87 -110 112 -135 8 -9 33 -38 55 -65 76 -95 506 -536
522 -536 5 0 17 21 27 48 10 26 24 54 31 63 8 8 14 20 14 26 0 6 7 13 15 17 8
3 15 10 15 15 0 5 20 39 45 75 25 37 45 69 45 72 0 4 13 22 30 41 17 18 30 40
30 47 0 8 7 16 15 20 8 3 15 10 15 16 0 5 17 33 38 62 20 28 51 73 67 99 17
26 52 81 80 121 27 40 54 81 60 90 5 9 33 49 60 89 28 41 55 81 60 90 6 9 64
97 130 194 66 97 125 184 130 193 10 16 100 151 135 202 18 26 84 125 110 165
8 13 52 78 98 145 45 66 82 125 82 129 0 4 9 16 20 26 11 10 32 39 47 64 14
25 29 48 32 51 10 8 111 160 111 166 0 4 14 23 30 44 17 21 30 43 30 49 0 6 3
11 8 11 4 0 16 17 27 37 11 20 25 41 30 47 11 11 121 173 140 204 6 9 22 33
38 53 15 20 27 40 27 44 0 4 14 24 30 45 17 21 30 42 30 48 0 6 3 12 8 14 9 4
52 65 52 74 0 3 14 23 30 44 17 21 30 41 30 45 0 4 14 24 30 45 17 21 30 42
30 48 0 6 4 12 8 14 7 3 168 237 197 286 18 31 83 126 144 212 33 47 69 102
81 123 11 21 37 62 58 90 47 64 110 158 137 201 11 18 27 41 35 51 8 10 26 38
40 62 l25 44 1318 2 c1309 2 1317 2 1323 -18 4 -11 17 -34 30 -52 13 -17 24
-35 24 -38 0 -4 20 -33 45 -65 25 -32 45 -61 45 -63 0 -3 34 -56 77 -119 42
-62 167 -248 277 -413 110 -165 204 -302 208 -303 5 -2 8 -8 8 -14 0 -6 14
-27 30 -48 17 -21 30 -41 30 -45 0 -4 14 -24 30 -45 17 -21 30 -41 30 -44 0
-3 20 -34 44 -69 24 -34 67 -98 97 -142 29 -44 56 -82 59 -85 3 -3 11 -17 19
-32 8 -15 22 -37 33 -47 10 -11 18 -23 18 -27 0 -3 14 -23 30 -44 17 -21 30
-41 30 -44 0 -7 40 -66 51 -76 3 -3 16 -23 29 -45 13 -22 28 -44 32 -50 38
-48 98 -137 98 -144 0 -5 6 -16 13 -23 12 -13 77 -105 107 -153 26 -40 91
-138 123 -185 56 -82 232 -345 242 -362 5 -9 37 -56 70 -103 33 -48 65 -94 70
-103 6 -10 21 -33 35 -52 14 -19 30 -42 35 -52 26 -45 190 -283 197 -286 4 -2
8 -8 8 -14 0 -6 12 -27 28 -47 34 -45 49 -70 62 -98 5 -13 14 -23 20 -23 5 0
10 -5 10 -11 0 -6 14 -28 30 -49 17 -21 30 -41 30 -45 0 -4 12 -24 28 -44 15
-20 32 -44 37 -53 14 -23 93 -141 103 -153 9 -11 78 -113 104 -153 10 -15 28
-48 40 -75 12 -26 28 -47 35 -47 13 0 131 115 288 282 100 107 117 125 195
218 30 35 60 69 65 75 6 7 21 26 35 45 14 18 40 49 58 70 17 21 32 43 32 49 0
6 4 11 8 11 8 0 60 67 131 170 83 120 191 282 191 285 0 2 18 31 40 64 22 33
45 71 50 83 6 13 19 37 29 53 36 56 123 215 161 295 12 25 26 52 31 60 5 8 12
22 15 30 3 8 19 42 34 75 65 139 110 241 135 305 9 25 23 58 31 73 8 16 14 36
14 45 0 9 7 26 15 36 8 11 15 29 15 41 0 12 4 25 9 31 5 5 14 25 19 44 6 19
16 51 23 70 6 19 17 51 24 70 7 19 20 62 29 95 10 33 22 74 28 90 5 17 14 46
18 65 15 59 31 123 46 174 8 26 14 57 14 68 0 10 6 40 14 66 15 52 35 149 46
227 4 28 12 75 18 105 20 100 42 264 42 305 0 22 7 81 16 130 12 72 15 184 15
560 0 274 -5 495 -11 530 -5 33 -14 107 -20 165 -5 58 -14 123 -20 145 -5 22
-10 63 -10 91 0 29 -6 74 -14 100 -13 44 -22 90 -45 234 -4 25 -12 61 -19 80
-10 32 -20 73 -42 175 -5 22 -18 72 -30 110 -12 39 -25 86 -30 105 -21 82 -53
181 -76 238 -8 18 -14 38 -14 44 0 11 -48 142 -74 203 -8 17 -21 50 -31 75
-16 43 -25 65 -60 145 -9 19 -23 52 -32 72 -9 21 -20 45 -25 53 -4 8 -11 22
-14 30 -14 33 -116 239 -147 295 -18 33 -51 92 -72 130 -21 39 -42 72 -47 73
-4 2 -8 9 -8 16 0 7 -13 31 -29 53 -16 22 -32 49 -35 61 -4 12 -12 22 -17 22
-5 0 -9 5 -9 11 0 7 -30 56 -67 111 -38 55 -72 107 -78 117 -5 9 -16 23 -22
31 -7 8 -54 71 -104 140 -51 69 -98 129 -106 133 -7 4 -13 13 -13 18 0 22
-268 323 -455 513 -200 201 -499 462 -658 573 -29 20 -87 63 -129 95 -42 32
-80 58 -83 58 -3 0 -29 17 -58 38 -29 21 -74 51 -101 67 -27 17 -60 38 -75 48
-14 9 -34 20 -43 23 -10 4 -18 10 -18 14 0 5 -12 13 -27 19 -16 6 -41 20 -58
31 -16 11 -39 24 -50 30 -11 5 -27 14 -35 19 -8 5 -22 12 -30 15 -8 4 -28 15
-45 26 -16 11 -37 22 -45 26 -8 3 -22 9 -30 14 -16 10 -264 132 -315 155 -104
48 -196 87 -290 122 -22 8 -52 21 -67 29 -14 8 -33 14 -42 14 -9 0 -24 4 -34
10 -18 11 -89 36 -137 50 -40 11 -92 29 -133 46 -18 8 -43 14 -55 14 -12 1
-33 7 -47 15 -14 8 -37 14 -52 15 -15 0 -42 6 -60 14 -37 15 -102 33 -168 46
-124 24 -159 32 -201 46 -26 8 -60 14 -75 14 -16 0 -45 5 -64 10 -19 6 -64 15
-100 20 -36 5 -101 14 -145 20 -229 32 -307 40 -375 40 -41 0 -113 4 -160 9
-129 14 -391 20 -515 11z m570 -105 c77 -4 145 -11 150 -15 6 -5 48 -8 95 -8
47 0 99 -5 115 -12 17 -6 67 -13 113 -15 46 -2 88 -8 95 -13 7 -6 50 -16 97
-22 47 -7 105 -16 130 -22 25 -5 68 -13 95 -18 127 -22 252 -52 272 -65 13 -9
44 -18 70 -22 27 -3 53 -9 58 -13 6 -4 26 -10 47 -13 20 -3 68 -19 106 -36 39
-17 79 -31 90 -31 11 0 23 -7 26 -15 5 -13 10 -14 27 -4 19 10 25 8 38 -9 10
-12 34 -23 61 -27 58 -9 119 -34 142 -57 9 -9 30 -20 45 -23 70 -15 104 -27
110 -41 3 -8 14 -14 24 -14 10 0 38 -9 61 -19 24 -11 64 -29 89 -40 25 -12 49
-21 53 -21 19 0 94 -41 100 -55 3 -8 12 -15 20 -15 8 0 52 -20 98 -44 185 -97
223 -116 234 -116 7 0 22 -13 33 -29 11 -16 38 -36 60 -44 22 -9 42 -20 45
-26 3 -5 34 -23 68 -41 35 -18 70 -38 78 -45 8 -7 34 -22 57 -34 22 -11 51
-32 62 -47 12 -15 21 -24 21 -20 0 4 25 -12 55 -34 30 -22 59 -40 65 -40 5 0
10 -6 10 -12 0 -7 19 -24 42 -38 22 -14 68 -51 102 -82 33 -32 66 -58 73 -58
7 0 46 -30 85 -68 40 -37 95 -85 122 -106 66 -54 396 -384 396 -397 0 -6 37
-49 83 -94 110 -112 138 -144 181 -210 21 -30 43 -55 51 -55 8 0 17 -11 21
-25 3 -14 20 -37 38 -52 31 -28 78 -96 131 -188 15 -27 34 -53 41 -58 13 -7
74 -93 74 -104 0 -3 15 -26 34 -52 18 -25 43 -66 56 -90 12 -24 36 -65 54 -90
49 -70 126 -217 126 -239 0 -15 5 -19 20 -15 15 4 20 0 20 -13 0 -11 18 -55
40 -98 22 -44 40 -93 40 -109 0 -22 4 -28 15 -23 17 6 45 -50 45 -92 0 -14 7
-33 15 -42 14 -16 46 -90 63 -145 3 -10 16 -35 29 -53 13 -19 23 -47 23 -61 0
-15 4 -31 10 -37 16 -16 82 -206 90 -259 9 -54 29 -115 47 -136 6 -8 13 -30
16 -49 3 -19 19 -80 37 -135 18 -55 33 -118 35 -140 1 -22 8 -60 14 -85 7 -25
16 -68 21 -96 4 -28 15 -64 23 -80 11 -21 12 -35 5 -47 -6 -12 -6 -22 2 -32
14 -17 33 -121 35 -200 1 -33 6 -71 11 -85 4 -14 9 -47 10 -75 1 -27 9 -95 17
-150 13 -80 21 -236 19 -335 0 -8 1 -134 1 -280 2 -260 -9 -576 -21 -594 -3
-5 -9 -57 -13 -115 -10 -131 -32 -255 -52 -301 -8 -19 -18 -65 -22 -103 -4
-37 -11 -70 -16 -73 -5 -3 -9 -25 -9 -49 0 -24 -5 -56 -11 -72 -6 -15 -12 -49
-14 -74 -1 -25 -10 -60 -19 -77 -9 -17 -16 -38 -16 -47 0 -9 -8 -32 -19 -53
-13 -26 -16 -44 -10 -59 5 -15 3 -32 -6 -50 -8 -15 -15 -36 -15 -46 0 -11 -9
-30 -20 -44 -11 -14 -22 -41 -25 -62 -4 -20 -10 -45 -14 -56 -5 -11 -14 -33
-20 -48 -6 -15 -11 -36 -11 -45 0 -9 -9 -28 -20 -42 -11 -14 -20 -37 -20 -53
0 -15 -4 -35 -9 -45 -10 -21 -50 -107 -85 -185 -14 -31 -26 -63 -26 -70 0 -7
-11 -33 -25 -59 -14 -26 -25 -54 -25 -62 0 -8 -18 -41 -40 -72 -22 -32 -40
-62 -40 -68 0 -7 -14 -38 -31 -71 -63 -119 -79 -153 -79 -164 0 -6 -7 -11 -15
-11 -8 0 -15 -7 -15 -15 0 -18 -57 -132 -70 -140 -6 -4 -10 -14 -10 -25 0 -10
-24 -49 -52 -87 -29 -38 -62 -87 -73 -108 -10 -22 -35 -60 -55 -85 -50 -62
-130 -177 -130 -186 0 -6 -57 -73 -111 -129 -10 -12 -19 -24 -19 -29 0 -5 -18
-30 -40 -56 -22 -26 -40 -51 -40 -56 0 -5 -11 -20 -25 -34 -14 -14 -48 -52
-77 -84 -29 -32 -64 -71 -78 -85 -14 -14 -47 -52 -74 -84 -31 -37 -60 -60 -80
-65 -24 -6 -32 -14 -34 -35 -4 -30 -66 -87 -95 -87 -9 0 -21 10 -26 23 -5 12
-22 34 -37 49 -40 37 -52 53 -66 85 -7 15 -20 34 -29 40 -9 7 -23 29 -32 50
-8 21 -29 51 -46 67 -17 17 -31 34 -31 39 0 5 -16 32 -35 61 -19 29 -35 57
-35 63 0 5 -11 19 -25 31 -15 13 -25 33 -25 48 0 17 -6 28 -19 31 -19 5 -41
42 -41 69 0 8 -13 23 -30 32 -16 9 -30 22 -30 28 0 12 -87 136 -116 166 -11
11 -15 28 -12 48 4 25 0 35 -17 46 -13 8 -29 13 -36 12 -9 -2 -13 5 -12 16 1
11 -18 42 -43 69 -24 27 -44 55 -44 63 0 7 -13 28 -29 47 -16 18 -35 51 -42
74 -8 25 -24 48 -42 59 -15 11 -31 31 -34 46 -5 23 -27 56 -73 107 -8 9 -24
33 -35 53 -10 21 -32 47 -47 58 -19 14 -28 30 -28 49 0 16 -10 37 -25 51 -14
13 -25 29 -25 35 0 6 -14 24 -31 41 -18 16 -42 52 -55 81 -13 29 -35 59 -48
68 -20 14 -24 22 -19 46 4 22 1 30 -13 35 -29 11 -74 63 -81 94 -3 15 -18 37
-34 49 -16 12 -29 28 -29 36 0 8 -12 26 -27 41 -39 40 -69 83 -94 136 -11 26
-32 54 -45 63 -13 8 -24 25 -24 36 0 22 -22 49 -39 49 -6 0 -21 21 -32 47 -12
27 -26 55 -30 63 -5 8 -16 29 -23 45 -8 17 -33 49 -55 73 -23 24 -41 51 -41
61 0 9 -13 27 -30 39 -21 16 -30 31 -30 50 0 28 -46 92 -66 92 -14 0 -54 64
-54 88 0 11 -22 46 -50 78 -27 31 -62 78 -76 103 -15 25 -46 74 -70 108 -24
34 -44 68 -44 77 0 8 -16 27 -35 42 -31 23 -35 31 -30 55 5 22 1 33 -20 51
-15 13 -47 42 -71 65 -39 39 -43 46 -34 69 13 33 -15 87 -47 92 -12 2 -24 13
-27 27 -3 13 -33 52 -66 87 -33 35 -60 70 -60 79 0 23 -48 63 -100 84 -42 17
-45 23 -43 73 l2 51 -52 6 c-29 3 -609 5 -1290 3 -1365 -3 -1257 2 -1257 -66
0 -27 -6 -36 -35 -53 -19 -12 -35 -25 -35 -29 0 -5 -8 -11 -18 -14 -9 -3 -24
-20 -31 -38 -8 -18 -33 -53 -56 -78 -22 -25 -63 -78 -89 -118 -27 -40 -53 -75
-57 -78 -5 -3 -9 -14 -9 -25 0 -23 -70 -118 -87 -118 -7 -1 -13 -6 -13 -12 0
-15 -67 -117 -97 -148 -13 -13 -23 -31 -23 -40 0 -10 -13 -30 -30 -46 -16 -16
-30 -35 -30 -42 0 -32 -32 -74 -60 -80 -28 -5 -30 -9 -30 -48 0 -34 -5 -46
-24 -59 -14 -9 -34 -35 -46 -58 -21 -44 -54 -94 -93 -138 -36 -42 -66 -89 -73
-115 -3 -14 -14 -31 -24 -38 -9 -6 -26 -32 -38 -57 -11 -25 -43 -71 -71 -103
-28 -32 -51 -64 -51 -71 0 -7 -13 -25 -28 -42 -33 -34 -92 -126 -92 -142 0 -7
-18 -30 -40 -52 -23 -23 -38 -45 -34 -51 3 -6 -12 -32 -35 -59 -23 -27 -41
-54 -41 -60 0 -16 -49 -99 -64 -108 -7 -4 -25 -28 -40 -54 -15 -25 -33 -49
-41 -52 -8 -3 -15 -14 -15 -24 0 -10 -20 -38 -45 -62 -34 -33 -45 -52 -45 -75
0 -38 -14 -60 -33 -52 -11 4 -21 -7 -36 -39 -12 -24 -21 -47 -21 -52 0 -4 -18
-30 -40 -57 -72 -92 -83 -107 -102 -143 -10 -20 -25 -40 -34 -45 -8 -5 -19
-18 -25 -30 -5 -12 -18 -35 -29 -52 -11 -16 -30 -50 -43 -75 -13 -25 -40 -63
-60 -84 -20 -22 -37 -45 -37 -52 0 -6 -7 -17 -15 -24 -8 -7 -15 -21 -15 -31 0
-11 -4 -19 -10 -19 -16 0 -60 -54 -60 -73 0 -10 -7 -20 -15 -23 -8 -4 -15 -15
-15 -26 0 -30 -27 -74 -59 -97 -17 -12 -33 -32 -37 -44 -4 -12 -19 -38 -33
-57 -15 -19 -40 -56 -55 -82 -15 -27 -31 -48 -36 -48 -6 0 -10 -7 -10 -15 0
-8 -9 -19 -20 -25 -11 -6 -20 -19 -20 -29 0 -10 -11 -23 -25 -29 -14 -6 -25
-19 -25 -27 0 -28 -30 -75 -48 -75 -12 0 -22 -14 -31 -45 -7 -25 -26 -59 -42
-76 -16 -17 -29 -39 -29 -48 0 -25 -32 -69 -108 -149 -84 -88 -71 -92 -217 64
-55 59 -120 128 -145 153 -25 25 -52 55 -60 66 -8 11 -27 28 -43 38 -15 10
-27 26 -27 36 0 11 -15 29 -35 41 -22 14 -38 32 -41 49 -3 15 -18 35 -33 45
-15 10 -32 27 -37 36 -5 10 -27 40 -49 68 -104 130 -132 169 -162 225 -18 34
-46 75 -62 91 -16 17 -36 48 -45 70 -9 21 -32 55 -51 74 -20 21 -35 47 -35 60
0 13 -15 39 -32 58 -18 19 -39 47 -48 63 -8 16 -23 40 -33 54 -10 14 -19 35
-20 47 -1 12 -9 26 -19 31 -10 5 -18 21 -18 34 0 13 -8 29 -18 34 -10 5 -24
29 -31 53 -15 52 -59 139 -77 154 -19 15 -73 127 -81 166 -3 18 -14 44 -25 57
-10 13 -18 31 -18 40 0 9 -10 32 -22 51 -11 19 -36 77 -53 128 -18 51 -37 98
-44 105 -6 6 -11 18 -11 26 0 19 -90 283 -102 298 -5 6 -8 20 -7 30 1 10 -3
31 -9 46 -7 16 -12 35 -12 44 0 23 -29 123 -48 163 -8 19 -16 51 -17 70 -1 19
-5 42 -8 50 -18 47 -57 214 -53 226 3 8 1 24 -4 37 -5 12 -14 60 -20 107 -5
47 -15 112 -21 145 -20 114 -29 201 -35 335 -3 74 -9 149 -14 165 -5 17 -7 62
-5 100 2 39 0 88 -4 110 -4 22 -3 54 2 71 6 20 6 65 0 120 -7 58 -7 93 0 102
6 8 5 17 -3 27 -6 8 -9 19 -5 25 7 12 15 80 20 185 6 139 15 260 20 276 7 22
16 116 15 157 0 19 7 54 15 78 8 25 15 62 15 83 0 21 7 58 16 82 14 42 24 100
43 249 8 64 16 92 64 240 30 92 46 151 57 212 5 25 16 60 24 77 9 16 16 38 16
48 0 10 11 40 25 67 13 27 22 53 19 58 -3 4 7 28 21 53 14 25 25 56 25 68 0
13 16 54 35 93 19 38 35 77 35 88 0 10 11 31 25 48 14 17 25 42 25 59 0 17 11
45 24 62 14 18 30 55 36 82 6 28 19 59 29 70 10 11 27 36 36 55 10 19 24 39
31 43 8 4 14 18 14 31 0 13 8 34 18 47 10 13 34 55 52 92 55 108 62 120 87
147 12 13 23 31 23 38 0 7 11 28 24 45 13 18 27 42 31 55 3 12 12 22 20 22 7
0 19 17 25 38 7 20 20 46 30 57 10 11 27 38 39 60 12 22 30 51 40 65 11 14 39
52 63 85 56 78 143 187 190 238 21 23 38 44 38 49 0 4 25 35 55 69 30 34 55
65 55 70 0 5 15 25 34 45 19 20 39 41 45 47 6 7 31 32 56 56 25 24 45 49 45
55 0 6 4 17 9 25 8 12 12 12 25 2 14 -11 16 -11 16 5 0 22 111 144 131 144 8
0 25 16 39 34 14 19 40 44 58 56 17 13 32 29 32 36 0 8 9 14 20 14 11 0 20 7
20 15 0 8 4 15 10 15 5 0 24 15 43 33 34 32 67 60 127 107 63 49 185 149 210
172 28 26 39 33 101 67 24 13 58 37 75 53 17 16 40 35 51 41 51 30 111 72 138
97 17 15 47 33 67 40 21 6 56 26 78 45 22 18 59 43 84 54 24 12 50 29 56 37 7
7 21 14 31 14 11 0 19 4 19 8 0 5 18 14 39 21 21 6 41 17 44 25 3 8 19 17 36
21 16 3 35 13 41 21 7 7 16 11 20 9 11 -7 83 33 93 51 5 9 17 12 30 9 21 -6
73 14 86 32 3 5 38 23 76 41 39 18 78 37 87 43 10 5 23 9 29 9 7 0 30 8 53 19
123 56 154 69 183 74 17 3 55 18 85 32 62 31 156 58 175 51 7 -3 22 3 33 14
11 11 31 20 45 20 13 0 64 14 112 31 48 17 99 32 113 33 24 3 80 19 125 37 11
4 36 10 55 13 19 3 55 10 80 16 25 5 76 16 115 25 38 8 92 15 119 15 27 0 63
4 80 9 31 9 258 42 326 47 19 2 60 8 90 14 30 6 105 11 165 11 61 0 116 3 124
8 15 10 440 7 646 -4z"/>
<path d="M5679 8345 c-9 -5 -45 -25 -78 -43 -59 -31 -131 -92 -131 -110 0 -5
-9 -31 -21 -56 -11 -26 -23 -68 -25 -94 -11 -108 -14 -1247 -4 -1301 14 -75
32 -131 41 -131 20 0 24 112 24 755 0 772 -3 732 64 815 42 53 94 85 159 99
38 8 359 11 1104 11 1069 0 1107 -1 1149 -37 8 -7 20 -13 24 -13 17 0 105
-100 105 -120 0 -10 7 -26 16 -35 15 -15 16 -70 10 -653 -8 -769 -8 -738 9
-779 15 -35 36 -37 51 -5 5 9 9 283 10 607 1 325 3 595 5 600 1 6 0 19 -4 30
-4 11 -3 52 2 90 7 58 6 72 -6 82 -10 8 -13 21 -8 42 9 40 -2 72 -21 64 -8 -3
-21 3 -29 13 -19 25 -19 34 0 34 8 0 15 7 15 15 0 11 -7 14 -23 10 -18 -5 -28
0 -39 17 -9 13 -38 35 -66 48 -28 14 -51 31 -52 38 0 8 -14 12 -37 12 -21 0
-530 1 -1132 2 -717 2 -1101 0 -1112 -7z"/>
<path d="M6657 8083 c-4 -8 9 -264 14 -298 4 -19 -3 -20 -191 -25 -147 -4
-195 -8 -194 -17 1 -7 2 -63 3 -123 l1 -110 183 6 c107 4 186 3 188 -2 3 -5 2
-160 -1 -344 -3 -184 -2 -339 1 -343 11 -14 240 -12 248 1 4 6 4 49 0 94 -6
64 -13 512 -10 587 1 11 34 13 189 10 l187 -4 2 123 3 122 -195 0 -195 0 6 58
c13 140 21 258 17 265 -2 4 -60 7 -128 7 -68 0 -126 -3 -128 -7z m183 -132 c5
-11 9 -55 7 -98 -2 -72 0 -80 24 -105 30 -31 98 -50 173 -47 28 1 65 -1 82 -5
29 -7 32 -10 32 -52 l1 -45 -59 3 c-42 2 -63 -2 -77 -13 -10 -9 -40 -19 -67
-23 -37 -4 -57 -14 -79 -36 l-29 -30 -2 -272 c-3 -302 -4 -304 -64 -253 -20
17 -33 22 -37 14 -5 -7 -11 -7 -17 -1 -6 6 -4 21 7 43 14 25 15 37 6 51 -14
23 -14 50 1 83 9 20 9 31 0 45 -16 26 -5 77 24 117 13 17 24 34 24 36 0 3 -16
24 -35 47 -19 23 -35 53 -35 67 0 16 -7 27 -20 30 -11 3 -20 13 -20 23 0 23
-41 40 -98 40 -27 0 -53 5 -59 11 -8 8 -17 8 -33 -1 -18 -10 -28 -7 -62 15
-34 23 -39 30 -33 53 9 38 32 50 97 52 124 3 169 14 199 47 33 34 47 82 35
116 -14 36 3 63 37 60 17 -1 28 6 36 23 13 29 27 31 41 5z m370 -326 c0 -8 -4
-17 -10 -20 -6 -4 -10 5 -10 20 0 15 4 24 10 20 6 -3 10 -12 10 -20z"/>
<path d="M5915 6302 c-18 -13 -45 -61 -45 -80 0 -11 -7 -25 -15 -32 -8 -7 -15
-19 -15 -26 0 -8 -4 -22 -9 -32 -9 -16 -40 -85 -67 -147 -7 -16 -27 -61 -45
-100 -18 -38 -38 -83 -45 -100 -7 -16 -27 -61 -44 -100 -18 -38 -38 -83 -45
-100 -7 -16 -27 -60 -44 -98 -17 -37 -31 -73 -31 -81 0 -7 -7 -19 -15 -26 -8
-7 -15 -18 -15 -25 0 -8 -6 -26 -14 -42 -23 -44 -46 -100 -46 -111 0 -5 -7
-15 -15 -22 -8 -7 -15 -23 -15 -35 0 -12 -7 -28 -15 -35 -8 -7 -15 -19 -15
-27 0 -8 -6 -27 -14 -41 -13 -26 -32 -69 -60 -134 -8 -18 -29 -64 -47 -103
-18 -38 -38 -83 -45 -100 -17 -41 -74 -164 -90 -197 -8 -14 -14 -33 -14 -41 0
-8 -7 -20 -15 -27 -8 -7 -15 -19 -15 -26 0 -8 -14 -45 -31 -82 -17 -37 -37
-82 -45 -99 -8 -18 -21 -49 -29 -68 -9 -19 -22 -49 -29 -67 -20 -46 -76 -167
-92 -200 -8 -14 -14 -33 -14 -41 0 -8 -7 -20 -15 -27 -8 -7 -15 -23 -15 -36 0
-13 -4 -24 -9 -24 -5 0 -13 -10 -16 -22 -7 -24 -28 -73 -52 -120 -7 -14 -13
-33 -13 -41 0 -8 -7 -20 -15 -27 -8 -7 -15 -18 -15 -26 0 -7 -14 -43 -31 -81
-17 -37 -37 -84 -46 -103 -9 -19 -20 -42 -25 -50 -4 -8 -11 -22 -14 -30 -3 -8
-12 -27 -20 -42 -8 -14 -14 -32 -14 -40 0 -11 -34 -86 -76 -170 -8 -14 -14
-33 -14 -42 0 -9 -4 -16 -9 -16 -5 0 -13 -10 -16 -22 -7 -24 -28 -73 -52 -120
-7 -14 -13 -33 -13 -41 0 -8 -7 -20 -15 -27 -8 -7 -15 -20 -15 -30 0 -10 -7
-23 -15 -30 -8 -7 -15 -21 -15 -32 0 -11 -6 -32 -14 -46 -8 -15 -23 -47 -34
-72 -26 -59 -70 -156 -90 -200 -8 -19 -21 -48 -28 -65 -16 -39 -73 -163 -90
-197 -8 -14 -14 -33 -14 -41 0 -8 -7 -20 -15 -27 -8 -7 -15 -20 -15 -29 0 -9
-14 -45 -32 -81 -17 -36 -37 -78 -44 -95 -46 -111 -85 -195 -95 -201 -5 -3 -9
-16 -9 -28 0 -13 -7 -29 -15 -36 -8 -7 -15 -20 -15 -30 0 -9 -9 -25 -20 -35
-34 -30 -21 -55 45 -91 33 -18 67 -36 75 -39 8 -4 33 -16 55 -28 50 -26 250
-124 290 -142 17 -7 55 -24 85 -38 59 -27 141 -60 205 -84 22 -8 53 -21 68
-29 16 -8 36 -14 46 -14 9 0 21 -4 27 -9 5 -5 25 -14 44 -19 19 -6 60 -20 90
-32 30 -12 71 -26 90 -30 19 -4 49 -13 65 -18 31 -11 86 -27 190 -57 33 -9 80
-23 105 -31 25 -8 55 -14 68 -14 13 0 31 -4 41 -10 10 -5 43 -13 72 -18 30 -5
74 -14 99 -20 25 -6 90 -19 145 -28 55 -9 120 -20 145 -26 51 -11 141 -22 320
-38 69 -6 188 -17 265 -25 77 -9 208 -15 290 -15 l150 0 -3 2737 c-1 1505 -6
2741 -11 2747 -4 6 -11 22 -14 36 -10 39 -77 106 -132 131 -49 23 -57 23 -380
24 -181 1 -337 4 -345 8 -8 4 -20 3 -25 -1z m589 -81 c8 -7 36 -9 73 -5 l60 6
21 -36 c12 -21 22 -43 22 -50 0 -8 9 -16 20 -19 52 -14 50 131 50 -2699 0
-1443 0 -2628 0 -2635 0 -7 -6 -10 -14 -7 -9 4 -20 -6 -31 -25 l-15 -31 -138
1 c-129 1 -206 6 -432 30 -52 6 -123 10 -156 9 -43 0 -63 3 -67 13 -3 8 -27
14 -68 15 -35 2 -66 6 -69 11 -5 9 -32 14 -185 35 -55 8 -125 21 -155 30 -30
9 -66 16 -80 16 -14 1 -43 8 -65 16 -22 9 -49 17 -60 18 -34 3 -139 39 -156
53 -8 7 -23 13 -32 13 -9 0 -18 4 -22 10 -3 5 -18 9 -33 9 -64 0 -142 22 -142
40 0 5 -19 12 -42 16 -23 4 -60 15 -83 24 -22 10 -62 24 -90 31 -27 8 -61 22
-75 31 -14 10 -45 23 -70 29 -25 6 -65 21 -90 32 -25 12 -56 22 -70 22 -16 1
-29 9 -35 24 -6 13 -19 22 -31 22 -24 0 -91 26 -114 44 -8 7 -40 22 -70 35
-93 39 -117 54 -188 112 -7 5 -10 15 -6 20 3 6 7 27 9 47 6 74 21 116 90 242
7 14 21 47 31 74 9 27 25 57 34 66 11 11 14 22 9 27 -6 6 -2 19 11 33 26 30
72 128 67 143 -2 6 7 27 20 46 13 18 23 41 23 50 0 9 10 32 21 50 12 19 28 59
35 89 8 30 25 67 38 83 13 15 27 48 30 73 4 25 13 49 20 53 19 12 94 172 102
218 3 22 19 60 35 84 16 25 29 52 29 62 0 28 11 49 26 49 8 0 14 6 14 13 0 6
11 39 25 72 13 33 25 69 25 79 0 11 6 27 14 35 18 21 66 111 66 125 0 10 59
139 101 218 10 20 19 41 19 47 0 5 5 22 10 36 9 24 12 25 27 14 14 -12 15 -11
9 8 -5 15 1 40 17 75 42 90 67 156 67 177 0 11 4 22 9 26 5 3 15 22 22 43 6
20 25 56 41 80 16 23 27 46 24 50 -3 5 11 40 30 78 19 38 42 89 51 114 8 25
21 52 29 61 8 8 14 25 14 36 0 26 28 93 38 93 4 0 14 17 22 38 14 40 86 198
100 222 6 8 25 40 44 71 18 31 36 71 39 90 10 65 25 108 46 135 11 15 26 45
32 68 6 22 21 57 34 76 14 19 28 53 34 75 5 22 9 34 10 28 1 -7 6 -13 12 -13
7 0 9 10 5 26 -5 20 4 48 39 115 25 49 45 97 45 106 0 9 6 24 13 32 7 9 22 42
33 75 10 32 25 61 32 63 6 3 12 13 12 22 0 10 7 26 15 37 8 10 15 25 15 33 0
7 11 26 25 43 14 16 28 42 31 56 3 15 16 50 28 77 12 28 29 70 36 95 17 55 29
73 46 66 18 -7 30 14 13 24 -10 7 -10 16 -1 47 14 47 55 68 127 65 28 -1 62 1
77 6 42 11 377 5 392 -7z"/>
<path d="M10779 2227 c-19 -13 -42 -26 -51 -30 -10 -3 -18 -12 -18 -19 0 -7
-22 -29 -48 -48 -67 -50 -142 -122 -136 -132 3 -4 -2 -8 -10 -8 -8 0 -36 -18
-61 -40 -25 -22 -53 -40 -61 -40 -8 0 -14 -4 -14 -9 0 -5 -28 -27 -62 -50 -35
-22 -79 -55 -99 -73 -56 -51 -128 -98 -150 -98 -13 0 -23 -10 -30 -28 -7 -21
-20 -31 -52 -39 -23 -7 -58 -27 -77 -46 -19 -19 -49 -37 -65 -41 -17 -4 -46
-16 -65 -28 -52 -32 -199 -105 -224 -112 -13 -3 -39 -19 -60 -35 -20 -16 -51
-33 -68 -37 -18 -3 -53 -22 -80 -40 -26 -19 -56 -34 -66 -34 -10 0 -29 -8 -42
-17 -30 -21 -84 -43 -125 -50 -16 -3 -39 -13 -50 -23 -11 -10 -41 -21 -67 -24
-26 -4 -51 -13 -55 -20 -13 -20 -188 -85 -259 -95 -35 -5 -85 -21 -111 -35
-25 -14 -55 -26 -67 -26 -26 0 -115 -27 -130 -39 -6 -5 -37 -12 -69 -16 -32
-3 -74 -13 -92 -21 -19 -8 -47 -14 -62 -14 -15 0 -41 -7 -57 -15 -15 -8 -42
-15 -60 -15 -17 -1 -42 -7 -56 -15 -14 -8 -39 -14 -56 -15 -16 0 -34 -4 -40
-9 -5 -5 -74 -14 -152 -20 -97 -7 -154 -16 -175 -27 -25 -13 -80 -19 -237 -26
-113 -5 -213 -14 -222 -19 -24 -12 -72 -11 -85 2 -15 15 -74 -28 -66 -47 6
-18 47 -28 70 -19 10 3 92 10 182 15 185 10 384 33 479 55 35 8 68 13 73 10 4
-3 39 2 76 11 37 9 93 20 123 24 119 19 177 31 213 45 20 8 48 15 61 15 13 0
37 7 52 15 16 8 39 15 51 15 12 0 25 4 28 10 3 5 24 10 45 10 21 0 74 13 117
30 42 16 83 30 90 30 13 0 178 54 228 74 17 7 50 20 75 28 72 26 218 86 312
128 47 22 93 40 100 40 8 0 18 4 24 9 5 5 97 54 205 109 177 90 234 121 294
160 11 6 30 17 43 22 13 6 38 21 56 35 18 14 37 25 42 25 5 1 25 14 44 30 19
17 40 30 46 30 7 0 19 6 26 13 7 7 33 26 58 43 181 123 412 296 530 400 115
100 180 163 180 174 0 18 -57 10 -91 -13z"/>
<path d="M2717 2203 c-26 -25 46 -99 216 -221 18 -12 39 -31 48 -41 9 -11 34
-32 56 -48 22 -15 68 -49 101 -75 33 -27 64 -48 68 -48 4 0 26 -15 49 -34 23
-19 65 -48 94 -65 28 -17 57 -36 64 -41 17 -15 118 -80 124 -80 2 0 23 -13 46
-29 70 -49 133 -52 75 -4 -13 10 -30 32 -38 47 -8 16 -28 34 -45 40 -16 6 -48
23 -70 37 -22 14 -50 29 -62 33 -11 4 -33 22 -48 41 -14 19 -32 35 -40 35 -17
0 -148 87 -153 101 -2 5 -23 19 -45 31 -23 11 -53 32 -67 46 -14 14 -38 31
-55 38 -16 7 -57 40 -89 74 -33 33 -66 60 -74 60 -15 0 -65 37 -112 83 -30 29
-33 31 -43 20z"/>
</g>
</svg>
