<svg xmlns="http://www.w3.org/2000/svg" viewBox="0 0 700 700"><path fill="#146bb3" d="M320.489 34.491C136.931 53.148 8.758 219.931 38.059 402c8.489 52.747 31.028 103.335 65.049 146 8.124 10.188 32.438 36 33.91 36 .402 0 12.586-17.662 27.078-39.25 60.905-90.728 87.071-129.725 103.664-154.5L285.341 364h135.61l23.594 35.25A42888.827 42888.827 0 0 0 489.329 466c11.654 17.325 33.979 50.534 49.611 73.797l28.421 42.297 7.868-7.797c70.008-69.382 103.971-172.424 89.215-270.673C643.237 162.435 531.962 53.715 390 35.481c-16.8-2.158-52.957-2.673-69.511-.99m-27.505 237.363c-8.329 4.432-9.024 10.398-7.323 62.896l.656 20.25H421v-37.352c0-42.068.039-41.848-8.02-45.896-5.51-2.769-114.776-2.675-119.996.102M346 288.464v8.464l-9.75.286-9.75.286-.129 6.25-.128 6.25H346v36h13v-36h19v-13h-19v-17h-13v8.464m-46.511 99.786a4185.15 4185.15 0 0 0-10.5 23.75c-2.039 4.675-9.445 21.325-16.458 37-7.013 15.675-14.212 31.875-15.997 36-3.059 7.067-31.001 69.89-34.077 76.618-1.577 3.45-27.337 61.215-28.098 63.009-1.077 2.538 32.675 18.39 55.053 25.856 30.112 10.047 56.624 14.878 88.838 16.189l15.75.641V525.107c0-156.907.47-145.799-6.344-150.01-3.132-1.936-4.846-2.097-22.383-2.097h-18.99l-6.794 15.25" fill-rule="evenodd"/></svg>