<?xml version="1.0" standalone="no"?>
<!DOCTYPE svg PUBLIC "-//W3C//DTD SVG 20010904//EN"
 "http://www.w3.org/TR/2001/REC-SVG-20010904/DTD/svg10.dtd">
<svg version="1.0" xmlns="http://www.w3.org/2000/svg"
 width="450.000000pt" height="450.000000pt" viewBox="0 0 450.000000 450.000000"
 preserveAspectRatio="xMidYMid meet">
<metadata>
Created by potrace 1.10, written by Peter Selinger 2001-2011
</metadata>
<g transform="translate(0.000000,450.000000) scale(0.100000,-0.100000)"
fill="#000000" stroke="none">
<path d="M2185 4283 c-214 -11 -385 -42 -582 -108 -502 -167 -918 -527 -1162
-1005 -96 -188 -161 -387 -198 -610 -24 -145 -24 -484 0 -625 63 -365 202
-678 426 -960 71 -89 202 -226 212 -223 5 2 112 158 240 348 127 190 339 506
471 703 l240 357 438 0 438 0 220 -327 c473 -705 678 -1010 699 -1038 l22 -30
52 50 c67 65 199 229 266 331 331 507 413 1170 217 1754 -248 738 -922 1284
-1689 1369 -102 11 -236 17 -310 14z m496 -1551 l29 -33 -2 -242 -3 -242 -437
-3 -438 -2 0 244 c0 233 1 244 21 270 12 15 31 32 43 36 11 5 187 8 389 7
l369 -2 29 -33z"/>
<path d="M2230 2645 l0 -55 -65 0 -65 0 0 -40 0 -39 63 -3 62 -3 3 -112 3
-113 34 0 34 0 3 113 3 112 63 3 62 3 0 39 0 40 -65 0 -65 0 0 55 0 55 -35 0
-35 0 0 -55z"/>
<path d="M1952 2058 c-244 -546 -691 -1556 -694 -1566 -4 -16 58 -52 172 -102
235 -102 459 -156 708 -168 l132 -7 0 918 0 918 -25 24 c-23 24 -30 25 -149
25 l-125 0 -19 -42z"/>
</g>
</svg>
