<?xml version="1.0" encoding="UTF-8"?>
<svg version="1.1" xmlns="http://www.w3.org/2000/svg" width="1200" height="1200">
<path d="M0 0 C396 0 792 0 1200 0 C1200 396 1200 792 1200 1200 C804 1200 408 1200 0 1200 C0 804 0 408 0 0 Z " fill="#076AE1" transform="translate(0,0)"/>
<path d="M0 0 C132 0 264 0 400 0 C400 132 400 264 400 400 C268 400 136 400 0 400 C0 268 0 136 0 0 Z " fill="#FEFEFE" transform="translate(625,348)"/>
<path d="M0 0 C29.04 0 58.08 0 88 0 C97.66731699 21.04063109 107.32745392 42.08323989 116.94921875 63.14453125 C120.86067264 71.70323381 124.78753825 80.25483364 128.71755981 88.80502319 C129.7983453 91.15670083 130.87860815 93.5086179 131.95874023 95.8605957 C134.85847935 102.17355932 137.75907647 108.48604677 140.67976379 114.78935242 C141.4858031 116.52937261 142.29017493 118.27016494 143.09448242 120.01098633 C144.04464461 122.06695843 144.99774138 124.12157793 145.9543457 126.17456055 C146.56669067 127.50161011 146.56669067 127.50161011 147.19140625 128.85546875 C147.54404541 129.61496826 147.89668457 130.37446777 148.26000977 131.15698242 C149 133 149 133 149 135 C149.66 135 150.32 135 151 135 C151.26917236 134.14253174 151.53834473 133.28506348 151.81567383 132.40161133 C153.00123472 128.99645366 154.40170303 125.8298482 155.94921875 122.57421875 C156.38293289 121.65675117 156.38293289 121.65675117 156.82540894 120.7207489 C157.44989957 119.3999275 158.07577893 118.07976197 158.70291138 116.76019287 C160.40668808 113.17351133 162.09832821 109.58112551 163.7890625 105.98828125 C164.13902786 105.24477417 164.48899323 104.50126709 164.8495636 103.73522949 C168.49181665 95.98069783 172.03282259 88.18125573 175.5625 80.375 C180.58409694 69.27551272 185.67688571 58.21317661 190.85192871 47.18441772 C194.33854411 39.75126906 197.78529453 32.30177161 201.17578125 24.82421875 C201.52252899 24.05949249 201.86927673 23.29476624 202.22653198 22.50686646 C203.91886102 18.77141957 205.60707422 15.03415697 207.29101562 11.29492188 C207.89842857 9.9505168 208.50585 8.60611555 209.11328125 7.26171875 C209.64735596 6.07537842 210.18143066 4.88903809 210.73168945 3.66674805 C212 1 212 1 213 0 C241.71 0 270.42 0 300 0 C300 96.03 300 192.06 300 291 C273.6 291 247.2 291 220 291 C219.67 241.5 219.34 192 219 141 C208.92247325 162.63008812 208.92247325 162.63008812 199.15042114 184.38845825 C192.37498305 199.80697173 185.39351789 215.12642417 178.31933594 230.40991211 C177.97009567 231.1656955 177.62085541 231.92147888 177.2610321 232.70016479 C176.60773213 234.11346556 175.95304051 235.52612418 175.29670715 236.9380188 C174.06418629 239.6043147 172.92989821 242.21030536 172 245 C157.48 245 142.96 245 128 245 C126.35 241.266875 124.7 237.53375 123 233.6875 C117.76660959 221.88392524 112.42268905 210.13346294 107.04083252 198.39700317 C101.74626654 186.8490862 96.51023199 175.27673234 91.33618164 163.67431641 C87.94971574 156.08642656 84.48280295 148.54607306 81 141 C80.67 190.5 80.34 240 80 291 C53.6 291 27.2 291 0 291 C0 194.97 0 98.94 0 0 Z " fill="#086AE1" transform="translate(675,403)"/>
<path d="M0 0 C0.80808105 0.1129541 1.61616211 0.2259082 2.44873047 0.34228516 C23.68129438 3.42024464 44.27162803 10.5594708 63 21 C64.05960937 21.57363281 65.11921875 22.14726562 66.2109375 22.73828125 C76.68459391 28.59437449 85.96729305 35.80210471 94.74609375 43.95703125 C96.3096893 45.37429377 97.92708582 46.73353387 99.58203125 48.04296875 C120.84937542 65.25611807 135.34075692 96.34371611 139 123 C142.51712068 164.49662347 123.53863402 198.16032427 101.7890625 232.01171875 C86.33774008 256.06728775 73.31302065 279.99711751 73.66381836 309.33129883 C73.68744768 311.43284682 73.68434256 313.53311752 73.67773438 315.63476562 C73.73405681 343.61518011 83.07322325 367.14438566 99 390 C98.67 390.66 98.34 391.32 98 392 C74.42529077 359.77801013 61.99656907 326.83417049 67.77075195 286.28125 C71.92697336 261.7162915 85.027954 240.09929962 97.50390625 218.953125 C115.86538925 187.78378421 133.1685805 153.1571721 124.125 115.9375 C115.44915356 83.40712394 92.40438898 55.60086871 63.62158203 38.59472656 C46.53669338 28.91031493 29.10350195 22.35766369 10 18 C8.73542969 17.65839844 7.47085938 17.31679688 6.16796875 16.96484375 C-35.84216877 6.46357215 -90.84556441 13.68980055 -128.13232422 35.23193359 C-132.58157287 37.94003376 -136.82725449 40.88546876 -141 44 C-141.99515625 44.74121094 -142.9903125 45.48242188 -144.015625 46.24609375 C-169.68038893 66.35493811 -183.12286529 96.08215282 -188.32421875 127.609375 C-188.92953468 130.64645148 -189.81567979 133.1576315 -191 136 C-191.4082566 140.24586865 -190.951046 143.42760472 -189.5 147.375 C-186.26230698 156.75802297 -188.37759605 163.54679494 -192.55859375 172.2890625 C-201.81150867 190.62112868 -213.53463473 207.53715471 -227 223 C-223.0301279 231.45275385 -213.41206171 234.25362736 -205.13671875 237.3125 C-201.36195424 239.34325749 -199.95211499 241.21597414 -198 245 C-196.99772244 251.25015785 -200.18321423 257.10472369 -202.94140625 262.51953125 C-204.26168025 265.16367651 -204.26168025 265.16367651 -204 269 C-203.175 269.61875 -202.35 270.2375 -201.5 270.875 C-199 273 -199 273 -198.3125 275.9375 C-199 279 -199 279 -201.92578125 281.1796875 C-205.67350371 284.1675031 -206.30578743 287.58661339 -206.875 292.1875 C-206.98666504 292.9705249 -207.09833008 293.7535498 -207.21337891 294.56030273 C-209.66692092 312.30966724 -209.66692092 312.30966724 -205 329 C-195.76162209 339.13968308 -180.8468402 339.80091031 -168 340.4375 C-146.9334652 341.53860832 -127.50031 349.51198773 -113 365 C-109.72595026 369.14720802 -106.82978199 373.54221998 -104 378 C-104.33 378.66 -104.66 379.32 -105 380 C-105.53367187 379.23816406 -106.06734375 378.47632813 -106.6171875 377.69140625 C-117.92339181 362.02311966 -132.91828452 350.63449603 -152.43066406 347.29345703 C-159.57128944 346.47788959 -166.81070177 346.56145271 -173.99121094 346.4230957 C-187.96596466 346.0820556 -200.43778263 344.39416809 -210.8125 334.25 C-213.4526935 330.3274268 -214.82798564 326.55343418 -216 322 C-216.18691406 321.27683594 -216.37382812 320.55367187 -216.56640625 319.80859375 C-218.42889347 307.74437474 -218.90633603 289.70211538 -213.34375 278.734375 C-212.9003125 277.83203125 -212.456875 276.9296875 -212 276 C-212.94011682 274.29883624 -213.94895617 272.63495707 -215 271 C-215.90240565 264.45755901 -214.08171163 260.3255504 -211.09375 254.515625 C-209.73418259 251.84580514 -209.73418259 251.84580514 -210 248 C-211.59328125 247.34644531 -211.59328125 247.34644531 -213.21875 246.6796875 C-232.05151025 238.80376483 -232.05151025 238.80376483 -238 230 C-239.19705218 226.40884346 -239.89804852 223.68816873 -239 220 C-237.41206777 217.3422524 -235.56666382 214.97645909 -233.671875 212.52734375 C-212.23496997 185.63645224 -212.23496997 185.63645224 -202.0625 154.125 C-202.65988261 152.13372464 -203.31479336 150.15819304 -204.04296875 148.2109375 C-205.05628866 144.81114579 -205.26685233 142.03898959 -205.25 138.5 C-205.25773437 136.87578125 -205.25773437 136.87578125 -205.265625 135.21875 C-204.9854029 131.82311753 -204.10842759 129.21404274 -203 126 C-202.5362409 123.81719801 -202.14904161 121.62660805 -201.75927734 119.42944336 C-197.55843506 95.99884379 -189.14627335 73.62018926 -174 55 C-173.5757373 54.47180664 -173.15147461 53.94361328 -172.71435547 53.39941406 C-167.30372607 46.69138685 -161.84272933 40.29648021 -155 35 C-154.50612793 34.60635254 -154.01225586 34.21270508 -153.50341797 33.80712891 C-111.11449438 0.20205623 -52.40898203 -7.79483286 0 0 Z " fill="#F9FBFE" transform="translate(414,347)"/>
<path d="M0 0 C3.13900732 2.24132073 5.92781998 4.68948987 8.6171875 7.44921875 C9.3184375 8.15046875 10.0196875 8.85171875 10.7421875 9.57421875 C11.4021875 9.57421875 12.0621875 9.57421875 12.7421875 9.57421875 C13.33515625 8.82398438 13.928125 8.07375 14.5390625 7.30078125 C16.83280391 4.46207291 18.91266835 2.87611787 21.9921875 0.94921875 C23.33023438 0.09457031 23.33023438 0.09457031 24.6953125 -0.77734375 C31.72851782 -4.58248817 37.61205498 -5.95918756 45.6171875 -5.86328125 C46.50124268 -5.85570801 47.38529785 -5.84813477 48.29614258 -5.84033203 C54.81473571 -5.67548713 60.07931479 -4.8277309 65.7421875 -1.42578125 C66.515625 -0.99007813 67.2890625 -0.554375 68.0859375 -0.10546875 C76.79412574 5.20652608 83.05416182 12.60034391 86.32421875 22.30078125 C89.17797353 37.82307361 84.87667595 49.31496919 76.24609375 62.03515625 C68.92779455 72.51407946 60.05398337 81.43339117 51.0546875 90.44921875 C50.5574115 90.94767303 50.0601355 91.44612732 49.54779053 91.95968628 C43.79245431 97.71348167 37.95584058 103.31454949 31.7421875 108.57421875 C30.49604914 109.64187502 29.24995486 110.70958274 28.00390625 111.77734375 C26.20113102 113.31529345 24.39719193 114.85184517 22.59179688 116.38671875 C22.00591797 116.886875 21.42003906 117.38703125 20.81640625 117.90234375 C20.03656372 118.5660498 20.03656372 118.5660498 19.2409668 119.24316406 C17.68635037 120.58116578 17.68635037 120.58116578 16.1940918 122.23925781 C14.7421875 123.57421875 14.7421875 123.57421875 12.4375 123.60546875 C8.76238728 122.19933866 6.36651805 119.79047962 3.6171875 117.07421875 C2.45684127 115.96361801 1.29404971 114.85556686 0.12890625 113.75 C-0.44553223 113.20424316 -1.0199707 112.65848633 -1.61181641 112.09619141 C-3.84189894 110.03414238 -6.18900382 108.1458707 -8.5703125 106.26171875 C-16.18934375 100.12232545 -23.20530642 93.3466555 -30.2578125 86.57421875 C-30.95165039 85.91437988 -31.64548828 85.25454102 -32.36035156 84.57470703 C-46.68513641 70.9083409 -63.44976246 54.37631617 -64.6328125 33.38671875 C-64.32962149 23.04255496 -60.237466 13.15441605 -53.2578125 5.57421875 C-50.11948262 2.83147667 -46.86903299 0.64641072 -43.2578125 -1.42578125 C-42.54496094 -1.86019531 -41.83210938 -2.29460937 -41.09765625 -2.7421875 C-29.03803238 -8.84644156 -11.16064557 -7.04781251 0 0 Z M-46.8203125 14.94921875 C-52.18346296 22.21082956 -53.30344145 29.65764656 -52.2578125 38.57421875 C-47.59737335 55.59079658 -31.83387587 71.50389136 -18.50390625 82.64453125 C-15.39346288 85.31680781 -12.43208286 88.14025613 -9.4453125 90.94921875 C-4.28225997 95.78728515 0.99355596 100.36616071 6.53515625 104.76953125 C8.39412178 106.28960572 10.08728279 107.83845551 11.7421875 109.57421875 C15.48140879 107.99291255 18.03868487 105.64191477 20.9921875 102.88671875 C24.14373977 99.96819098 27.29694092 97.06211429 30.5546875 94.26171875 C42.98875169 83.47262994 42.98875169 83.47262994 54.1796875 71.44140625 C55.28528925 70.12021216 56.43646721 68.83654656 57.6171875 67.58203125 C67.99655185 56.51341224 76.56259747 44.08392945 76.0859375 28.43359375 C75.16615892 20.78270825 70.65768141 15.27321996 64.7421875 10.57421875 C55.82426634 5.1644504 45.47592724 3.77170933 35.26171875 6.15234375 C26.21985531 10.25380758 18.93045304 19.05404175 12.7421875 26.57421875 C9.03705065 25.07056456 7.14907266 22.93712651 4.6171875 19.88671875 C0.19609069 14.83716851 -4.53364852 11.05419409 -10.2578125 7.57421875 C-10.84949219 7.19265625 -11.44117188 6.81109375 -12.05078125 6.41796875 C-23.81087153 1.92207583 -38.42082536 6.03756776 -46.8203125 14.94921875 Z " fill="#F9FBFE" transform="translate(370.2578125,434.42578125)"/>
<path d="M0 0 C5.94 0 11.88 0 18 0 C23.445 11.88 23.445 11.88 29 24 C30.2375 21.525 31.475 19.05 32.75 16.5 C36.875 8.25 36.875 8.25 41 0 C46.61 0 52.22 0 58 0 C58 18.48 58 36.96 58 56 C52.72 56 47.44 56 42 56 C41.67 48.08 41.34 40.16 41 32 C37.535 39.425 37.535 39.425 34 47 C31.03 47 28.06 47 25 47 C22.36 41.72 19.72 36.44 17 31 C16.67 39.25 16.34 47.5 16 56 C10.72 56 5.44 56 0 56 C0 37.52 0 19.04 0 0 Z " fill="#FAFCFE" transform="translate(244,800)"/>
<path d="M0 0 C4.57875 -0.0825 9.1575 -0.165 13.875 -0.25 C15.29796387 -0.28641602 16.72092773 -0.32283203 18.18701172 -0.36035156 C27.79241136 -0.44360821 35.52827876 0.66562761 42.875 7.1875 C49.44416826 14.56422558 50.68276333 21.54780446 50.37890625 31.33984375 C49.58402081 39.0182732 47.00337551 45.28293226 41.1027832 50.41699219 C32.82106597 56.65159739 23.85180406 56.50532303 13.875 56.25 C9.29625 56.1675 4.7175 56.085 0 56 C0 37.52 0 19.04 0 0 Z " fill="#F9FBFE" transform="translate(760,800)"/>
<path d="M0 0 C4.57875 -0.0825 9.1575 -0.165 13.875 -0.25 C15.29796387 -0.28641602 16.72092773 -0.32283203 18.18701172 -0.36035156 C27.79241136 -0.44360821 35.52827876 0.66562761 42.875 7.1875 C49.44416826 14.56422558 50.68276333 21.54780446 50.37890625 31.33984375 C49.58402081 39.0182732 47.00337551 45.28293226 41.1027832 50.41699219 C32.82106597 56.65159739 23.85180406 56.50532303 13.875 56.25 C9.29625 56.1675 4.7175 56.085 0 56 C0 37.52 0 19.04 0 0 Z " fill="#F9FBFE" transform="translate(471,800)"/>
<path d="M0 0 C5.960625 -0.12375 11.92125 -0.2475 18.0625 -0.375 C19.93043213 -0.42962402 21.79836426 -0.48424805 23.72290039 -0.54052734 C25.2227928 -0.55806995 26.72271403 -0.5733548 28.22265625 -0.5859375 C29.36728333 -0.6319812 29.36728333 -0.6319812 30.53503418 -0.67895508 C35.90183033 -0.68414122 38.64908122 0.68708974 42.58201599 4.31747437 C45.91011332 8.26646746 46.43211785 11.71242938 46.32421875 16.7421875 C45.82205397 20.23919046 44.29137448 22.38128631 42 25 C41.01 25.33 40.02 25.66 39 26 C39 26.66 39 27.32 39 28 C40.11375 28.309375 40.11375 28.309375 41.25 28.625 C45.02630521 30.5131526 46.16479961 32.19365844 48 36 C48.78933274 40.91140372 48.51562056 44.78941261 46.5625 49.375 C41.42408596 54.63874121 35.97384253 56.19265047 28.73950195 56.37710571 C24.80182015 56.40050908 20.87532438 56.33216298 16.9375 56.25 C11.348125 56.1675 5.75875 56.085 0 56 C0 37.52 0 19.04 0 0 Z " fill="#F9FBFE" transform="translate(552,800)"/>
<path d="M0 0 C13 0 13 0 16.32421875 2.38671875 C17.54760742 3.96411133 17.54760742 3.96411133 18.6875 5.6875 C19.33585815 6.55314575 19.33585815 6.55314575 19.99731445 7.4362793 C20.90061691 8.64783474 21.78688251 9.87226654 22.65625 11.10839844 C24.43027094 13.6056939 26.31586928 16.00700223 28.20898438 18.41455078 C30.16391575 20.92406804 32.07799243 23.46517842 34 26 C34.33 17.42 34.66 8.84 35 0 C39.95 0 44.9 0 50 0 C50 18.48 50 36.96 50 56 C37 56 37 56 33.1328125 52.81640625 C32.08811239 51.42916 31.08532297 50.00943824 30.125 48.5625 C29.37089844 47.53092773 29.37089844 47.53092773 28.6015625 46.47851562 C27.04077042 44.33839894 25.52067783 42.16880388 24 40 C21.69 37.03 19.38 34.06 17 31 C16.67 39.25 16.34 47.5 16 56 C10.72 56 5.44 56 0 56 C0 37.52 0 19.04 0 0 Z " fill="#FBFCFE" transform="translate(386,800)"/>
<path d="M0 0 C4.95 -0.103125 9.9 -0.20625 15 -0.3125 C16.54558594 -0.35802002 18.09117187 -0.40354004 19.68359375 -0.45043945 C27.21675445 -0.52637857 33.22713713 -0.42136761 39 5 C44.11509489 10.51891817 45.45356179 14.74176218 45.32421875 22.1640625 C44.85770011 26.24469543 43.58033492 29.77242387 41 33 C40.01 33.33 39.02 33.66 38 34 C38.45890625 34.9178125 38.9178125 35.835625 39.390625 36.78125 C42.59375 43.1875 45.796875 49.59375 49 56 C36.63001449 57.8014542 36.63001449 57.8014542 31 56 C26.41229734 52.1943361 24.09246752 46.44531022 22 41 C22 40.34 22 39.68 22 39 C20.02 39 18.04 39 16 39 C16 44.61 16 50.22 16 56 C10.72 56 5.44 56 0 56 C0 37.52 0 19.04 0 0 Z " fill="#FAFBFE" transform="translate(631,800)"/>
<path d="M0 0 C4.040641 2.4025433 6.80379334 4.8956722 9.3125 8.875 C8.04709948 12.67120155 6.53031569 13.36178188 3.25 15.5625 C2.33089844 16.18511719 1.41179688 16.80773437 0.46484375 17.44921875 C-0.60056641 18.15498047 -0.60056641 18.15498047 -1.6875 18.875 C-3.15234375 17.60546875 -4.6171875 16.3359375 -6.08203125 15.06640625 C-9.34148433 12.64759071 -12.79508177 12.54235411 -16.75390625 12.5859375 C-19.74258429 13.03272977 -20.93269629 14.51276423 -22.6875 16.875 C-24.96969901 20.29829851 -24.98491163 21.71637668 -25 25.75 C-25.01675781 26.77867187 -25.03351562 27.80734375 -25.05078125 28.8671875 C-24.63683376 32.29449466 -23.73701391 34.11991572 -21.6875 36.875 C-17.63067738 39.57954841 -14.44539116 39.29576588 -9.6875 38.875 C-6.27278076 37.99039972 -6.27278076 37.99039972 -3.6875 36.875 C-3.6875 36.215 -3.6875 35.555 -3.6875 34.875 C-6.3275 34.875 -8.9675 34.875 -11.6875 34.875 C-11.6875 31.245 -11.6875 27.615 -11.6875 23.875 C-4.0975 23.875 3.4925 23.875 11.3125 23.875 C11.3125 33.775 11.3125 43.675 11.3125 53.875 C7.0225 53.875 2.7325 53.875 -1.6875 53.875 C-2.0175 52.885 -2.3475 51.895 -2.6875 50.875 C-3.574375 51.37 -4.46125 51.865 -5.375 52.375 C-11.73540297 55.05306441 -18.97957837 54.97213845 -25.5390625 53.03125 C-31.64775474 50.29987099 -35.39451926 46.65673517 -38.6875 40.875 C-39.19603516 40.00101563 -39.19603516 40.00101563 -39.71484375 39.109375 C-43.02047753 32.10204073 -42.69653456 23.09289045 -41.25390625 15.6328125 C-38.80045059 9.01914941 -33.20751544 3.4254385 -27.25 -0.125 C-18.93248066 -3.85835983 -8.27154745 -3.80812648 0 0 Z " fill="#FBFCFE" transform="translate(880.6875,802.125)"/>
<path d="M0 0 C13.2 0 26.4 0 40 0 C40 4.62 40 9.24 40 14 C32.08 14 24.16 14 16 14 C16 16.31 16 18.62 16 21 C22.6 21 29.2 21 36 21 C36 25.29 36 29.58 36 34 C29.4 34 22.8 34 16 34 C16 36.64 16 39.28 16 42 C24.25 42 32.5 42 41 42 C41 46.62 41 51.24 41 56 C27.47 56 13.94 56 0 56 C0 37.52 0 19.04 0 0 Z " fill="#F9FBFE" transform="translate(925,800)"/>
<path d="M0 0 C5.28 0 10.56 0 16 0 C16 18.48 16 36.96 16 56 C10.72 56 5.44 56 0 56 C0 37.52 0 19.04 0 0 Z " fill="#F7FAFE" transform="translate(710,800)"/>
<path d="M0 0 C5.28 0 10.56 0 16 0 C16 18.48 16 36.96 16 56 C10.72 56 5.44 56 0 56 C0 37.52 0 19.04 0 0 Z " fill="#F7FAFE" transform="translate(336,800)"/>
<path d="M0 0 C10.65517241 0 10.65517241 0 15 3 C18.44992486 6.79491734 18.44638945 10.65303752 18.29296875 15.5625 C17.73217308 20.22831999 15.68875138 24.07973849 12 27 C9 28 9 28 0 28 C0 18.76 0 9.52 0 0 Z " fill="#0D6DE1" transform="translate(776,814)"/>
<path d="M0 0 C10.65517241 0 10.65517241 0 15 3 C18.44992486 6.79491734 18.44638945 10.65303752 18.29296875 15.5625 C17.73217308 20.22831999 15.68875138 24.07973849 12 27 C9 28 9 28 0 28 C0 18.76 0 9.52 0 0 Z " fill="#0D6DE1" transform="translate(487,814)"/>
<path d="M0 0 C2.29141286 -0.05384521 4.58318188 -0.09272087 6.875 -0.125 C8.78925781 -0.15980469 8.78925781 -0.15980469 10.7421875 -0.1953125 C14 0 14 0 16 2 C15.75 5.0625 15.75 5.0625 15 8 C12.11584117 9.44207941 9.58278472 9.09394887 6.375 9.0625 C5.18648437 9.05347656 3.99796875 9.04445313 2.7734375 9.03515625 C1.85820313 9.02355469 0.94296875 9.01195312 0 9 C0 6.03 0 3.06 0 0 Z " fill="#1773E2" transform="translate(568,834)"/>
<path d="M0 0 C8.3984375 -0.29296875 8.3984375 -0.29296875 11 0 C13 3 13 3 12.6875 6.625 C12 10 12 10 11 11 C7.3308423 11.14310287 3.67284559 11.04221662 0 11 C0 7.37 0 3.74 0 0 Z " fill="#0F6FE1" transform="translate(647,814)"/>
<path d="M0 0 C2.14576637 -0.02685938 4.29162645 -0.04633088 6.4375 -0.0625 C7.63246094 -0.07410156 8.82742188 -0.08570313 10.05859375 -0.09765625 C13 0 13 0 14 1 C14.125 3.5 14.125 3.5 14 6 C13 7 13 7 10.05859375 7.09765625 C8.26615234 7.08025391 8.26615234 7.08025391 6.4375 7.0625 C4.64119141 7.04896484 4.64119141 7.04896484 2.80859375 7.03515625 C1.88175781 7.02355469 0.95492187 7.01195312 0 7 C0 4.69 0 2.38 0 0 Z " fill="#0E6EE1" transform="translate(568,814)"/>
<path d="M0 0 C0.66 0 1.32 0 2 0 C3.49926962 2.09956889 4.85646023 4.1728609 6.1875 6.375 C6.56841797 6.97828125 6.94933594 7.5815625 7.34179688 8.203125 C8.29629694 9.76219952 9.15590022 11.37849474 10 13 C9.67 13.66 9.34 14.32 9 15 C7.49105621 13.06891122 5.99288466 11.13093994 4.5 9.1875 C4.07074219 8.64029297 3.64148438 8.09308594 3.19921875 7.52929688 C0 3.33984375 0 3.33984375 0 0 Z " fill="#D3E4F9" transform="translate(503,724)"/>
</svg>
